<svg xmlns="http://www.w3.org/2000/svg" viewBox="0 0 608.356 247.544">
  <defs>
    <style>
      .cls-1, .cls-2 {
        fill: #1e1dc4;
      }

      .cls-2 {
        font-size: 49px;
        font-family: GoogleSans-Regular, Google Sans;
      }
    </style>
  </defs>
  <g id="Group_1106" data-name="Group 1106" transform="translate(-244.034 -193.527)">
    <path id="Path_225" data-name="Path 225" class="cls-1" d="M171.8,148.273l25-32.876V245.468a17.768,17.768,0,0,1-17.751,17.751H45.951A17.768,17.768,0,0,1,28.2,245.468V158.3l26.985,25.553c17.672,15.363,31.523-5.333,31.523-5.333l21.334-28.339c8.438-11.542,17.433-5.97,17.433-5.97L147.843,155.6C161.774,162.522,171.8,148.273,171.8,148.273Zm25-108.021v55.4c-3.582,2.707-6.368,5.015-6.368,5.015l-31.523,28.975c-17.274,14.488-33.194-.637-33.194-.637-17.353-14.727-29.692,4.06-29.692,4.06L80.738,152.014c-14.249,16.557-31.523,2.547-31.523,2.547l-21.015-16V40.251A17.768,17.768,0,0,1,45.951,22.5h133.1A17.768,17.768,0,0,1,196.8,40.251ZM93,69.864c-11.542,15.2,5.572,32.4,20.776,20.776C125.316,75.436,108.2,58.321,93,69.864Z" transform="translate(215.834 171.153)"/>
    <g id="Group_13" data-name="Group 13" transform="translate(465.049 193.527)">
      <g id="Group_12" data-name="Group 12" transform="translate(0 0)">
        <path id="Path_211" data-name="Path 211" class="cls-1" d="M440.288,193.946c1.478-7.812,2.745-14.569,4.012-20.375,1.161-5.806,2.217-11.191,3.062-16.152s1.689-9.924,2.533-14.886,1.689-10.452,2.64-16.575,2.006-13.091,3.273-20.9,2.745-17.314,4.539-28.293q.634-4.117,2.217-5.384c1.056-.845,3.589-1.267,7.707-1.267q2.375,0,7.285.317a35.4,35.4,0,0,1,9.713,2.006,21.551,21.551,0,0,1,8.446,5.067c2.428,2.323,3.589,5.49,3.589,9.607a62.074,62.074,0,0,1-1.372,10.874c-.845,4.962-2.112,10.557-3.589,17-1.584,6.44-3.273,13.3-5.279,20.8s-4.012,15.1-6.018,22.7c-2.112,7.6-4.118,15.1-6.334,22.276-2.112,7.179-4.117,13.724-5.912,19.531s-3.484,10.663-4.962,14.674-2.534,6.545-3.061,7.707a6.58,6.58,0,0,1-3.7,3.273,13.093,13.093,0,0,1-4.856.845h-20.9a19.3,19.3,0,0,1-9.607-2.217,20.9,20.9,0,0,1-6.44-5.7,27.945,27.945,0,0,1-4.012-7.918,43.38,43.38,0,0,1-1.9-9.079l-10.98-98.92c-.844,6.44-1.9,13.724-2.956,21.853s-2.323,16.258-3.484,24.7c-1.267,8.34-2.428,16.575-3.59,24.7s-2.322,15.519-3.484,22.17-2.323,12.352-3.273,17.1c-1.056,4.751-1.9,7.812-2.639,9.29a5.9,5.9,0,0,1-3.484,3.273,13.46,13.46,0,0,1-5.067.845H351.5a18.465,18.465,0,0,1-9.185-2.111,17.946,17.946,0,0,1-6.018-5.6,35.608,35.608,0,0,1-4.012-8.023,91.337,91.337,0,0,1-2.639-9.185c-6.018-23.965-10.874-43.6-14.675-59.12-3.7-15.413-6.756-27.765-8.974-37.161-2.217-9.29-3.695-16.152-4.539-20.481a53.184,53.184,0,0,1-1.161-9.4c0-2.534.739-4.117,2.323-4.856s4.856-1.056,9.818-1.056a71.644,71.644,0,0,1,15.519,1.372A26.018,26.018,0,0,1,338.2,75.39a17.016,17.016,0,0,1,6.018,7.284,34.886,34.886,0,0,1,2.745,10.874c0,.633.106,1.478.211,2.534s.317,2.85.528,5.384.634,5.912,1.056,10.24c.528,4.328,1.161,10.135,2.006,17.314s1.795,16.152,3.062,26.815,2.745,23.437,4.539,38.217c1.583-8.974,2.851-16.152,3.906-21.748q1.425-8.234,2.534-14.569c.739-4.223,1.373-8.235,2.006-12.141s1.267-8.762,2.111-14.569,1.795-13.091,2.85-21.959,2.533-20.27,4.328-34.416a3.093,3.093,0,0,1,1.9-2.428,12.537,12.537,0,0,1,4.117-1.372,27.362,27.362,0,0,1,5.384-.528c2.006-.106,3.906-.106,5.6-.106a100.231,100.231,0,0,1,14.991.95,29.2,29.2,0,0,1,10.24,3.378,18.51,18.51,0,0,1,6.545,6.545,40.486,40.486,0,0,1,4.012,10.029c.422,1.9.95,4.54,1.584,7.812s1.267,8.551,2.111,15.73,1.795,17.1,3.062,29.665C436.593,157,438.176,173.466,440.288,193.946Z" transform="translate(-300.3 -60.504)"/>
        <path id="Path_212" data-name="Path 212" class="cls-1" d="M522.181,227.275A32.734,32.734,0,0,1,511.1,225.8a16.358,16.358,0,0,1-6.862-4.117,14.035,14.035,0,0,1-3.484-6.545,37.743,37.743,0,0,1-.95-8.974c0-2.217.105-5.279.317-9.4.211-4.012.633-9.607,1.161-16.786.633-7.073,1.267-16.152,2.112-27.132s1.795-24.493,2.956-40.645c.105-3.273.528-5.173,1.056-5.7q.633-.633,3.484-.633h8.551a35.968,35.968,0,0,1,11.085,1.372,15.2,15.2,0,0,1,6.862,4.012,14.2,14.2,0,0,1,3.484,6.44,34.17,34.17,0,0,1,.95,8.34c0,2.217-.105,5.49-.422,9.924s-.739,10.452-1.161,17.947c-.528,7.6-1.161,17-2.112,28.188-.844,11.191-2.006,24.809-3.273,40.645a5.593,5.593,0,0,1-1.056,3.484c-.634.633-1.795.845-3.8.845h-7.812ZM506.556,80c0-5.912,2.112-10.557,6.44-13.935C517.219,62.689,523.026,61,530.2,61c6.334,0,10.874,1.267,13.724,3.906a13.153,13.153,0,0,1,4.328,10.24A17.268,17.268,0,0,1,542.24,88.66q-6.018,5.384-17.736,5.384C512.469,94.149,506.556,89.4,506.556,80Z" transform="translate(-289.185 -61)"/>
        <path id="Path_213" data-name="Path 213" class="cls-1" d="M631.906,101.132l-8.341,122.252c-.105,2.217-.95,3.273-2.428,3.273H609c-8.235,0-14.147-1.584-17.631-4.856s-5.279-7.812-5.279-13.936c0-2.217.106-5.49.317-9.924s.528-9.607.95-15.519.951-12.458,1.479-19.425,1.055-14.041,1.689-21.114,1.161-14.252,1.689-21.22.951-13.619,1.478-19.636H558.428c-1.584,0-2.428-1.056-2.428-3.061l.633-12.352a24.8,24.8,0,0,1,.95-5.6,14.752,14.752,0,0,1,2.534-4.962,11.633,11.633,0,0,1,4.539-3.484,16.022,16.022,0,0,1,6.757-1.372h98.5a4.9,4.9,0,0,1,2.428.633,2.561,2.561,0,0,1,1.056,2.428l-.844,12.985c-.317,4.434-1.478,8.023-3.59,10.663-2.111,2.745-6.545,4.117-13.09,4.117H631.906Z" transform="translate(-286.054 -60.487)"/>
      </g>
      <text id="WHAT_IT_TAKES" data-name="WHAT IT TAKES" class="cls-2" transform="translate(13.747 233.544)"><tspan x="0" y="0">WHAT IT TAKES</tspan></text>
    </g>
  </g>
</svg>
