<?xml version="1.0" encoding="utf-8"?>
<!-- Generator: Adobe Illustrator 22.0.1, SVG Export Plug-In . SVG Version: 6.00 Build 0)  -->
<svg version="1.1" id="Layer_1" xmlns="http://www.w3.org/2000/svg" xmlns:xlink="http://www.w3.org/1999/xlink" x="0px" y="0px"
	 viewBox="0 0 768.2 264.7" style="enable-background:new 0 0 768.2 264.7;" xml:space="preserve">
<style type="text/css">
	.st0{fill:#FFFFFF;}
	.st1{enable-background:new    ;}
</style>
<g id="Group_858" transform="translate(0.001)">
	<path id="Path_225" class="st0" d="M181.3,131.4l31.6-34.3v135.8c0,10.2-10.1,18.5-22.4,18.5H22.4c-12.4,0-22.4-8.3-22.4-18.5v-91
		l34.1,26.7c22.3,16,39.8-5.6,39.8-5.6l26.9-29.6c10.7-12,22-6.2,22-6.2l28.2,11.9C168.7,146.3,181.3,131.4,181.3,131.4z
		 M212.9,18.7v57.8c-4.5,2.8-8,5.2-8,5.2L165.1,112c-21.8,15.1-41.9-0.7-41.9-0.7c-21.9-15.4-37.5,4.2-37.5,4.2l-19.3,19.8
		c-18,17.3-39.8,2.7-39.8,2.7L0,121.3V18.7C0,8.4,10.1,0.1,22.4,0.1h168.1C202.9,0.1,212.9,8.4,212.9,18.7z M81.8,49.6
		c-14.6,15.9,7,33.8,26.2,21.7C122.6,55.4,101,37.5,81.8,49.6z"/>
	<g id="Group_12" transform="translate(279.099)">
		<path id="Path_211" class="st0" d="M176.8,139.3c1.9-8.2,3.5-15.2,5.1-21.3c1.5-6.1,2.8-11.7,3.9-16.9s2.1-10.4,3.2-15.5
			s2.1-10.9,3.3-17.3s2.5-13.7,4.1-21.8s3.5-18.1,5.7-29.5c0.5-2.9,1.5-4.7,2.8-5.6c1.3-0.9,4.5-1.3,9.7-1.3c2,0,5.1,0.1,9.2,0.3
			c4.2,0.2,8.3,0.9,12.3,2.1c3.9,1,7.5,2.8,10.7,5.3c3.1,2.4,4.5,5.7,4.5,10c-0.2,3.8-0.8,7.6-1.7,11.4c-1.1,5.2-2.7,11-4.5,17.7
			c-2,6.7-4.1,13.9-6.7,21.7s-5.1,15.8-7.6,23.7c-2.7,7.9-5.2,15.8-8,23.3c-2.7,7.5-5.2,14.3-7.5,20.4s-4.4,11.1-6.3,15.3
			s-3.2,6.8-3.9,8c-1.1,1.7-2.7,2.9-4.7,3.4c-2,0.6-4.1,0.9-6.1,0.9H168c-4.2,0.1-8.3-0.7-12.1-2.3c-3.1-1.4-5.8-3.4-8.1-6
			c-2.2-2.4-3.9-5.2-5.1-8.3c-1.2-3-2-6.2-2.4-9.5L126.4,44.3c-1.1,6.7-2.4,14.3-3.7,22.8s-2.9,17-4.4,25.8
			c-1.6,8.7-3.1,17.3-4.5,25.8s-2.9,16.2-4.4,23.1s-2.9,12.9-4.1,17.9c-1.3,5-2.4,8.2-3.3,9.7c-0.9,1.7-2.5,2.9-4.4,3.4
			c-2.1,0.6-4.2,0.9-6.4,0.9H64.7c-4,0.1-7.9-0.6-11.6-2.2c-2.9-1.4-5.5-3.3-7.6-5.8c-2.1-2.5-3.8-5.4-5.1-8.4
			c-1.3-3.1-2.4-6.3-3.3-9.6c-7.6-25-13.7-45.5-18.5-61.7C13.9,69.9,10,57,7.2,47.2c-2.8-9.7-4.7-16.9-5.7-21.4
			C0.6,22.6,0.1,19.3,0,16c0-2.6,0.9-4.3,2.9-5.1s6.1-1.1,12.4-1.1c6.6-0.1,13.1,0.4,19.6,1.4c4.5,0.6,8.9,2.1,12.9,4.3
			c3.2,1.8,5.8,4.4,7.6,7.6c1.9,3.5,3,7.4,3.5,11.4c0,0.9,0.1,1.8,0.3,2.6c0.1,1.1,0.4,3,0.7,5.6s0.8,6.2,1.3,10.7
			c0.7,4.5,1.5,10.6,2.5,18.1s2.3,16.9,3.9,28s3.5,24.5,5.7,39.9c2-9.4,3.6-16.9,4.9-22.7c1.2-5.7,2.3-10.8,3.2-15.2
			c0.9-4.4,1.7-8.6,2.5-12.7s1.6-9.1,2.7-15.2s2.3-13.7,3.6-22.9s3.2-21.2,5.5-35.9c0.1-1.1,0.9-1.9,2.4-2.5
			c1.7-0.7,3.4-1.2,5.2-1.4c2.2-0.4,4.5-0.6,6.8-0.6c2.5-0.1,4.9-0.1,7.1-0.1c6.3-0.1,12.6,0.3,18.9,1c4.5,0.5,8.8,1.7,12.9,3.5
			c3.3,1.6,6.1,3.9,8.3,6.8c2.2,3.2,3.9,6.7,5.1,10.5c0.5,2,1.2,4.7,2,8.2S166,49,167,56.5s2.3,17.9,3.9,31
			C172.1,100.7,174.1,117.9,176.8,139.3z"/>
		<path id="Path_212" class="st0" d="M294.2,173.6c-5.7,0-10.4-0.4-14-1.5c-3.2-0.8-6.1-2.2-8.7-4.3c-2.1-1.8-3.6-4.2-4.4-6.8
			c-0.8-3-1.3-6.2-1.2-9.4c0-2.3,0.1-5.5,0.4-9.8c0.3-4.2,0.8-10,1.5-17.5c0.8-7.4,1.6-16.9,2.7-28.3s2.3-25.6,3.7-42.4
			c0.1-3.4,0.7-5.4,1.3-6c0.5-0.4,2-0.7,4.4-0.7h10.8c4.7-0.1,9.4,0.4,14,1.4c3.2,0.7,6.2,2.1,8.7,4.2c2.1,1.8,3.6,4.1,4.4,6.7
			c0.8,2.8,1.2,5.8,1.2,8.7c0,2.3-0.1,5.7-0.5,10.4S317.6,89.2,317,97c-0.7,7.9-1.5,17.7-2.7,29.4c-1.1,11.7-2.5,25.9-4.1,42.4
			c-0.1,1.9-0.7,3.1-1.3,3.6c-0.8,0.7-2.3,0.9-4.8,0.9h-9.9L294.2,173.6z M274.5,19.8c0-6.2,2.7-11,8.1-14.5
			C288,1.8,295.3,0,304.4,0c8,0,13.7,1.3,17.3,4.1c3.5,2.4,5.5,6.4,5.5,10.7c0,5.7-2.5,10.4-7.6,14.1s-12.5,5.6-22.4,5.6
			C282,34.6,274.5,29.6,274.5,19.8z"/>
		<path id="Path_213" class="st0" d="M436.7,42.4L426.2,170c-0.1,2.3-1.2,3.4-3.1,3.4h-15.3c-10.4,0-17.9-1.7-22.3-5.1
			s-6.7-8.2-6.7-14.5c0-2.3,0.1-5.7,0.4-10.4s0.7-10,1.2-16.2s1.2-13,1.9-20.3s1.3-14.7,2.1-22s1.5-14.9,2.1-22.2s1.2-14.2,1.9-20.5
			H344c-2,0-3.1-1.1-3.1-3.2l0.8-12.9c0.1-2,0.5-4,1.2-5.8c1.5-4.2,4.8-7.4,8.9-8.8c2.7-1,5.6-1.5,8.5-1.4h124.4
			c1.1,0,2.1,0.2,3.1,0.7c0.9,0.5,1.5,1.5,1.3,2.5l-1.1,13.6c-0.4,4.6-1.9,8.4-4.5,11.1c-2.7,2.9-8.3,4.3-16.5,4.3h-30.3V42.4z"/>
	</g>
	<g class="st1">
		<path class="st0" d="M297.4,208.6h5.3l7.3,29.5l0.7,2.7h0.2l0.8-2.7l9-29.5h4.9l8.6,29.5l0.8,2.7h0.2l7.9-32.2h5.3l-10.8,40.1
			h-4.9l-8.5-29l-0.9-3.1H323l-1,3.1l-8.8,29h-4.9L297.4,208.6z"/>
		<path class="st0" d="M353.8,208.6h4.7V226h20.7v-17.4h4.7v40.1h-4.7v-18.3h-20.7v18.3h-4.7V208.6z"/>
		<path class="st0" d="M404.4,208.6h5.4l15.2,40.1h-5.2l-4-11h-17.3l-4,11h-5.2L404.4,208.6z M414.2,233.2l-5.3-14.4l-1.6-4.3H407
			l-1.6,4.3l-5.3,14.4H414.2z"/>
		<path class="st0" d="M434.9,213.2h-11.3v-4.5h27.2v4.5h-11.2v35.6h-4.8V213.2z"/>
		<path class="st0" d="M469.9,208.6h4.7v40.1h-4.7V208.6z"/>
		<path class="st0" d="M491.8,213.2h-11.3v-4.5h27.2v4.5h-11.2v35.6h-4.8V213.2z"/>
		<path class="st0" d="M532.7,213.2h-11.3v-4.5h27.2v4.5h-11.2v35.6h-4.8V213.2z"/>
		<path class="st0" d="M562.6,208.6h5.4l15.2,40.1H578l-4-11h-17.3l-4,11h-5.2L562.6,208.6z M572.3,233.2l-5.3-14.4l-1.6-4.3h-0.2
			l-1.6,4.3l-5.3,14.4H572.3z"/>
		<path class="st0" d="M588.5,208.6h4.7v21.1h0.2l18.1-21.1h6.1v0.2L602.8,226l15.9,22.5v0.2h-5.8l-13.3-19.1l-6.4,7.3v11.8h-4.7
			V208.6z"/>
		<path class="st0" d="M623.5,208.6h23.2v4.5h-18.5v13.3h16.7v4.5h-16.7v13.3h18.5v4.5h-23.2V208.6z"/>
		<path class="st0" d="M656.9,246.8c-2.6-1.9-4.4-4.6-5.4-8l4.5-1.8c0.6,2.4,1.8,4.3,3.5,5.9c1.7,1.5,3.7,2.3,6,2.3
			c2.3,0,4.3-0.6,5.9-1.9c1.6-1.3,2.4-3,2.4-5.1c0-1.9-0.7-3.4-2-4.6c-1.4-1.2-3.6-2.3-6.7-3.4l-2.5-0.9c-2.8-1-5.2-2.3-6.9-4
			s-2.7-3.9-2.7-6.8c0-1.9,0.5-3.7,1.6-5.3s2.5-2.9,4.4-3.9c1.9-1,4-1.5,6.3-1.5c2.3,0,4.3,0.4,6,1.3c1.7,0.9,3.1,1.9,4.1,3.1
			c1,1.2,1.7,2.4,2.2,3.6l-4.5,1.9c-0.4-1.4-1.2-2.6-2.5-3.8c-1.3-1.1-3.1-1.7-5.2-1.7c-2.1,0-3.8,0.6-5.3,1.7s-2.2,2.6-2.2,4.4
			c0,1.6,0.6,2.8,1.8,3.8c1.2,1,3.1,1.9,5.6,2.8l2.6,0.9c3.4,1.2,6,2.8,8,4.6c1.9,1.8,2.9,4.4,2.9,7.5c0,2.6-0.7,4.7-2,6.5
			c-1.3,1.8-3,3-5,3.9c-2,0.8-4.1,1.2-6.2,1.2C662.4,249.6,659.5,248.7,656.9,246.8z"/>
	</g>
</g>
</svg>
