<?xml version="1.0" encoding="utf-8"?>
<!-- Generator: Adobe Illustrator 22.0.1, SVG Export Plug-In . SVG Version: 6.00 Build 0)  -->
<svg version="1.1" id="Layer_1" xmlns="http://www.w3.org/2000/svg" xmlns:xlink="http://www.w3.org/1999/xlink" x="0px" y="0px"
	 viewBox="0 0 608.4 247.5" style="enable-background:new 0 0 608.4 247.5;" xml:space="preserve">
<style type="text/css">
	.st0{fill:#FFFFFF;}
	.st1{enable-background:new    ;}
</style>
<g id="Group_869" transform="translate(-244.034 -193.527)">
	<path id="Path_225" class="st0" d="M387.6,319.4l25-32.9v130.1c0,9.8-8,17.7-17.8,17.8H261.8c-9.8,0-17.7-8-17.8-17.8v-87.2
		l27,25.6c17.7,15.4,31.5-5.3,31.5-5.3l21.3-28.3c8.4-11.5,17.4-6,17.4-6l22.4,11.4C377.6,333.7,387.6,319.4,387.6,319.4z
		 M412.6,211.4v55.4c-3.6,2.7-6.4,5-6.4,5l-31.5,29c-17.3,14.5-33.2-0.6-33.2-0.6c-17.4-14.7-29.7,4.1-29.7,4.1l-15.3,18.9
		c-14.2,16.6-31.5,2.5-31.5,2.5l-21-16v-98.3c0-9.8,8-17.7,17.8-17.8h133.1C404.7,193.7,412.6,201.6,412.6,211.4L412.6,211.4z
		 M308.8,241c-11.5,15.2,5.6,32.4,20.8,20.8C341.1,246.6,324,229.5,308.8,241z"/>
	<g id="Group_13" transform="translate(465.049 193.527)">
		<g id="Group_12" transform="translate(0 0)">
			<path id="Path_211" class="st0" d="M140,133.4c1.5-7.8,2.7-14.6,4-20.4c1.2-5.8,2.2-11.2,3.1-16.2s1.7-9.9,2.5-14.9
				s1.7-10.5,2.6-16.6s2-13.1,3.3-20.9s2.7-17.3,4.5-28.3c0.4-2.7,1.2-4.5,2.2-5.4c1.1-0.8,3.6-1.3,7.7-1.3c1.6,0,4,0.1,7.3,0.3
				c3.3,0.2,6.6,0.9,9.7,2c3.2,1,6.1,2.7,8.4,5.1c2.4,2.3,3.6,5.5,3.6,9.6c-0.1,3.7-0.6,7.3-1.4,10.9c-0.8,5-2.1,10.6-3.6,17
				c-1.6,6.4-3.3,13.3-5.3,20.8s-4,15.1-6,22.7c-2.1,7.6-4.1,15.1-6.3,22.3c-2.1,7.2-4.1,13.7-5.9,19.5s-3.5,10.7-5,14.7
				s-2.5,6.5-3.1,7.7c-0.8,1.5-2.1,2.7-3.7,3.3c-1.6,0.6-3.2,0.9-4.9,0.8H133c-3.3,0.1-6.7-0.7-9.6-2.2c-2.5-1.4-4.7-3.4-6.4-5.7
				c-1.8-2.4-3.1-5.1-4-7.9c-1-2.9-1.6-6-1.9-9.1l-11-98.9c-0.8,6.4-1.9,13.7-3,21.9S94.8,80.6,93.6,89c-1.3,8.3-2.4,16.6-3.6,24.7
				s-2.3,15.5-3.5,22.2s-2.3,12.4-3.3,17.1c-1.1,4.8-1.9,7.8-2.6,9.3c-0.6,1.5-1.9,2.7-3.5,3.3c-1.6,0.6-3.3,0.9-5.1,0.8H51.2
				c-3.2,0.1-6.4-0.6-9.2-2.1c-2.4-1.4-4.5-3.3-6-5.6c-1.7-2.5-3-5.2-4-8c-1-3-1.9-6.1-2.6-9.2c-6-24-10.9-43.6-14.7-59.1
				c-3.7-15.4-6.8-27.8-9-37.2C3.5,35.9,2,29,1.2,24.7c-0.7-3.1-1.1-6.2-1.2-9.4c0-2.5,0.7-4.1,2.3-4.9s4.9-1.1,9.8-1.1
				c5.2-0.1,10.4,0.4,15.5,1.4c3.7,0.6,7.2,2,10.2,4.1c2.7,1.8,4.7,4.3,6,7.3c1.5,3.5,2.4,7.1,2.7,10.9c0,0.6,0.1,1.5,0.2,2.5
				s0.3,2.8,0.5,5.4s0.6,5.9,1.1,10.2c0.5,4.3,1.2,10.1,2,17.3c0.8,7.2,1.8,16.2,3.1,26.8s2.7,23.4,4.5,38.2
				c1.6-9,2.9-16.2,3.9-21.7c0.9-5.5,1.8-10.3,2.5-14.6c0.7-4.2,1.4-8.2,2-12.1s1.3-8.8,2.1-14.6s1.8-13.1,2.9-22s2.5-20.3,4.3-34.4
				c0.2-1.1,0.9-2,1.9-2.4c1.3-0.7,2.7-1.2,4.1-1.4c1.8-0.4,3.6-0.5,5.4-0.5c2-0.1,3.9-0.1,5.6-0.1c5-0.1,10,0.3,15,0.9
				c3.6,0.5,7.1,1.6,10.2,3.4c2.7,1.6,5,3.8,6.5,6.5c1.8,3.1,3.1,6.5,4,10c0.4,1.9,1,4.5,1.6,7.8s1.3,8.6,2.1,15.7
				s1.8,17.1,3.1,29.7C136.3,96.5,137.9,113,140,133.4z"/>
			<path id="Path_212" class="st0" d="M233,166.3c-3.8,0.1-7.5-0.4-11.1-1.5c-2.6-0.8-5-2.2-6.9-4.1c-1.7-1.8-2.9-4.1-3.5-6.5
				c-0.7-2.9-1-6-1-9c0-2.2,0.1-5.3,0.3-9.4c0.2-4,0.6-9.6,1.2-16.8c0.6-7.1,1.3-16.2,2.1-27.1s1.8-24.5,3-40.6
				c0.1-3.3,0.5-5.2,1.1-5.7c0.4-0.4,1.6-0.6,3.5-0.6h8.6c3.7-0.1,7.5,0.3,11.1,1.4c2.6,0.7,5,2.1,6.9,4c1.7,1.8,2.9,4,3.5,6.4
				c0.7,2.7,1,5.5,1,8.3c0,2.2-0.1,5.5-0.4,9.9s-0.7,10.5-1.2,17.9c-0.5,7.6-1.2,17-2.1,28.2c-0.8,11.2-2,24.8-3.3,40.6
				c0,1.2-0.3,2.5-1.1,3.5c-0.6,0.6-1.8,0.8-3.8,0.8H233L233,166.3z M217.4,19c0-5.9,2.1-10.6,6.4-13.9C228,1.7,233.8,0,241,0
				c6.3,0,10.9,1.3,13.7,3.9c2.9,2.6,4.5,6.4,4.3,10.2c0.1,5.2-2.1,10.1-6,13.5c-4,3.6-9.9,5.4-17.7,5.4
				C223.3,33.1,217.4,28.4,217.4,19z"/>
			<path id="Path_213" class="st0" d="M345.9,40.6l-8.3,122.3c-0.1,2.2-1,3.3-2.4,3.3h-12.1c-8.2,0-14.1-1.6-17.6-4.9
				s-5.3-7.8-5.3-13.9c0-2.2,0.1-5.5,0.3-9.9s0.5-9.6,1-15.5s1-12.5,1.5-19.4s1.1-14,1.7-21.1s1.2-14.3,1.7-21.2s1-13.6,1.5-19.6
				h-35.3c-1.6,0-2.4-1.1-2.4-3.1l0.6-12.4c0.1-1.9,0.4-3.8,1-5.6c0.5-1.8,1.4-3.5,2.5-5c1.2-1.5,2.8-2.7,4.5-3.5
				c2.1-0.9,4.4-1.4,6.8-1.4h98.5c0.9,0,1.7,0.2,2.4,0.6c0.8,0.6,1.2,1.5,1.1,2.4l-0.8,13c-0.3,4.4-1.5,8-3.6,10.7
				c-2.1,2.7-6.5,4.1-13.1,4.1h-24V40.6z"/>
		</g>
		<g class="st1">
			<path class="st0" d="M14.6,198.5h4.6l6.4,25.8l0.6,2.4h0.2l0.7-2.4l7.8-25.8h4.3l7.5,25.8l0.7,2.4h0.2l6.9-28.2h4.6l-9.5,35.1
				h-4.3L38,208.2l-0.8-2.7H37l-0.8,2.7l-7.7,25.4h-4.3L14.6,198.5z"/>
			<path class="st0" d="M63.9,198.5H68v15.2h18.1v-15.2h4.1v35.1h-4.1v-16H68v16h-4.1V198.5z"/>
			<path class="st0" d="M108.2,198.5h4.7l13.3,35.1h-4.6l-3.5-9.7H103l-3.5,9.7h-4.6L108.2,198.5z M116.7,220l-4.7-12.6l-1.4-3.8
				h-0.2l-1.4,3.8l-4.7,12.6H116.7z"/>
			<path class="st0" d="M134.9,202.4h-9.8v-4h23.8v4h-9.8v31.1h-4.2V202.4z"/>
			<path class="st0" d="M165.5,198.5h4.1v35.1h-4.1V198.5z"/>
			<path class="st0" d="M184.7,202.4h-9.8v-4h23.8v4h-9.8v31.1h-4.2V202.4z"/>
			<path class="st0" d="M220.5,202.4h-9.8v-4h23.8v4h-9.8v31.1h-4.2V202.4z"/>
			<path class="st0" d="M246.6,198.5h4.7l13.3,35.1h-4.6l-3.5-9.7h-15.1l-3.5,9.7h-4.6L246.6,198.5z M255.1,220l-4.7-12.6l-1.4-3.8
				h-0.2l-1.4,3.8l-4.7,12.6H255.1z"/>
			<path class="st0" d="M269.3,198.5h4.1v18.5h0.2l15.8-18.5h5.3v0.2l-13,15l13.9,19.7v0.2h-5L279,216.8l-5.6,6.4v10.3h-4.1V198.5z"
				/>
			<path class="st0" d="M299.9,198.5h20.3v4H304V214h14.6v3.9H304v11.6h16.2v4h-20.3V198.5z"/>
			<path class="st0" d="M329.2,231.8c-2.3-1.7-3.9-4-4.7-7l4-1.6c0.6,2.1,1.6,3.8,3.1,5.1c1.5,1.3,3.3,2,5.3,2c2,0,3.7-0.5,5.1-1.6
				c1.4-1.1,2.1-2.6,2.1-4.5c0-1.6-0.6-3-1.8-4s-3.1-2-5.9-3l-2.2-0.8c-2.5-0.9-4.5-2-6.1-3.5c-1.6-1.4-2.4-3.4-2.4-6
				c0-1.7,0.5-3.2,1.4-4.6c0.9-1.4,2.2-2.6,3.8-3.4c1.6-0.8,3.5-1.3,5.5-1.3s3.8,0.4,5.3,1.1c1.5,0.8,2.7,1.7,3.6,2.7
				s1.5,2.1,1.9,3.2l-3.9,1.7c-0.3-1.2-1.1-2.3-2.2-3.3c-1.2-1-2.7-1.5-4.6-1.5c-1.8,0-3.3,0.5-4.6,1.5s-1.9,2.3-1.9,3.8
				c0,1.4,0.5,2.5,1.6,3.4s2.7,1.7,4.9,2.4l2.3,0.8c3,1.1,5.3,2.4,7,4s2.5,3.8,2.5,6.6c0,2.3-0.6,4.1-1.7,5.7
				c-1.2,1.5-2.6,2.7-4.4,3.4c-1.8,0.7-3.6,1.1-5.4,1.1C334,234.3,331.4,233.5,329.2,231.8z"/>
		</g>
	</g>
</g>
</svg>
