<svg id="XMLID_33_" xmlns="http://www.w3.org/2000/svg" viewBox="0 0 179.408 49.956">
  <defs>
    <style>
      .cls-1 {
        fill: #00a44f;
      }

      .cls-2 {
        fill: #414141;
      }
    </style>
  </defs>
  <g id="XMLID_48_" transform="translate(68.713 34.008)">
    <path id="XMLID_62_" class="cls-1" d="M286.1,152.144V141.6h4.659a2.844,2.844,0,0,1,1.345.312,3.49,3.49,0,0,1,1.057.793,4.214,4.214,0,0,1,.7,1.129,3.452,3.452,0,0,1,.264,1.273,3.654,3.654,0,0,1-.5,1.873,2.94,2.94,0,0,1-1.393,1.2l2.4,3.963H292.32l-2.162-3.531h-2.017v3.531Zm2.041-5.332h2.57a1.028,1.028,0,0,0,.528-.144,1.573,1.573,0,0,0,.432-.36,1.715,1.715,0,0,0,.288-.552,2.073,2.073,0,0,0,.1-.672,1.972,1.972,0,0,0-.12-.672,2.062,2.062,0,0,0-.312-.552,2.152,2.152,0,0,0-.456-.36,1.061,1.061,0,0,0-.528-.12h-2.474v3.434Z" transform="translate(-286.1 -141.6)"/>
    <path id="XMLID_60_" class="cls-1" d="M365.525,150.342v1.8H358.2V141.6h7.205v1.8h-5.14v2.546h4.443V147.6h-4.443v2.738Z" transform="translate(-340.884 -141.6)"/>
    <path id="XMLID_57_" class="cls-1" d="M426.035,141.6h1.825l4.011,10.544h-2.113l-.985-2.642h-3.7l-.961,2.642H422Zm2.378,6.485-1.465-4.155-1.513,4.155Z" transform="translate(-389.361 -141.6)"/>
    <path id="XMLID_55_" class="cls-1" d="M498.9,152.144V141.6h2.041v8.742h5.38v1.8Z" transform="translate(-447.791 -141.6)"/>
    <path id="XMLID_53_" class="cls-1" d="M566,152.144V141.6h2.041v10.544Z" transform="translate(-498.776 -141.6)"/>
    <path id="XMLID_51_" class="cls-1" d="M619.69,143.4H616.3v8.766h-2.017V143.4H610.9v-1.8h8.79Z" transform="translate(-532.892 -141.6)"/>
    <path id="XMLID_49_" class="cls-1" d="M681.658,141.6l2.594,5.092,2.642-5.092h2.21l-3.843,6.869v3.7h-2.041v-3.723L679.4,141.6Z" transform="translate(-584.94 -141.6)"/>
  </g>
  <path id="XMLID_47_" class="cls-2" d="M25.746,24.978A16.979,16.979,0,0,1,42.727,8a5.429,5.429,0,0,1,.624.024,24.991,24.991,0,1,0-.024,33.912c-.216,0-.408.024-.624.024A16.959,16.959,0,0,1,25.746,24.978Z"/>
  <path id="XMLID_46_" class="cls-1" d="M197.119,51.42A16.634,16.634,0,0,0,181.1,34.8a24.474,24.474,0,0,1,0,33.24A16.617,16.617,0,0,0,197.119,51.42Z" transform="translate(-137.605 -26.442)"/>
  <g id="XMLID_34_" transform="translate(68.329 6.1)">
    <path id="XMLID_44_" class="cls-2" d="M284.524,27.105a1.547,1.547,0,0,1,.576-1.177,2.244,2.244,0,0,1,1.609-.528,2.1,2.1,0,0,1,1.489.528,1.585,1.585,0,0,1,.576,1.177V45.166h7.734a2.026,2.026,0,0,1,1.537.528,1.94,1.94,0,0,1,.528,1.441,1.846,1.846,0,0,1-.528,1.369,2.062,2.062,0,0,1-1.537.528H286.469A2.323,2.323,0,0,1,285,48.456a1.575,1.575,0,0,1-.5-1.129V27.105Z" transform="translate(-284.5 -25.4)"/>
    <path id="XMLID_41_" class="cls-2" d="M396.9,34.839a12.455,12.455,0,0,1,.552-3.723,7.85,7.85,0,0,1,1.681-3,7.744,7.744,0,0,1,2.858-1.993,12.065,12.065,0,0,1,8.214,0,8.042,8.042,0,0,1,2.882,1.993,7.85,7.85,0,0,1,1.681,3,12.454,12.454,0,0,1,.552,3.723V39.93a12.454,12.454,0,0,1-.552,3.723,8.178,8.178,0,0,1-1.681,3,8.042,8.042,0,0,1-2.882,1.993,10.684,10.684,0,0,1-4.131.721,10.516,10.516,0,0,1-4.083-.721,7.744,7.744,0,0,1-2.858-1.993,8.537,8.537,0,0,1-1.681-3,12.455,12.455,0,0,1-.552-3.723Zm4.179,5.14c0,1.993.456,3.386,1.345,4.227a5.96,5.96,0,0,0,7.3,0c.865-.841,1.3-2.258,1.3-4.227v-5.14c0-1.993-.432-3.386-1.3-4.227a5.96,5.96,0,0,0-7.3,0c-.889.841-1.345,2.258-1.345,4.227Z" transform="translate(-369.905 -25.4)"/>
    <path id="XMLID_38_" class="cls-2" d="M538.5,34.839a12.456,12.456,0,0,1,.552-3.723,7.85,7.85,0,0,1,1.681-3,7.743,7.743,0,0,1,2.858-1.993,12.065,12.065,0,0,1,8.214,0,8.042,8.042,0,0,1,2.882,1.993,7.85,7.85,0,0,1,1.681,3,12.456,12.456,0,0,1,.552,3.723V39.93a12.456,12.456,0,0,1-.552,3.723,8.179,8.179,0,0,1-1.681,3,8.042,8.042,0,0,1-2.882,1.993,10.684,10.684,0,0,1-4.131.721,10.516,10.516,0,0,1-4.083-.721,7.744,7.744,0,0,1-2.858-1.993,8.537,8.537,0,0,1-1.681-3,12.456,12.456,0,0,1-.552-3.723Zm4.179,5.14c0,1.993.456,3.386,1.345,4.227a5.96,5.96,0,0,0,7.3,0c.865-.841,1.3-2.258,1.3-4.227v-5.14c0-1.993-.432-3.386-1.3-4.227a5.96,5.96,0,0,0-7.3,0c-.889.841-1.345,2.258-1.345,4.227Z" transform="translate(-477.496 -25.4)"/>
    <path id="XMLID_35_" class="cls-2" d="M681.3,28.605a1.5,1.5,0,0,1,.6-1.177,2.3,2.3,0,0,1,1.585-.528h4.755a12.1,12.1,0,0,1,3.963.576,7.765,7.765,0,0,1,2.762,1.609,6.605,6.605,0,0,1,1.609,2.426,8.616,8.616,0,0,1,.5,2.978V34.9a7.568,7.568,0,0,1-.48,2.642,5.661,5.661,0,0,1-1.537,2.258,8.02,8.02,0,0,1-2.714,1.585,11.96,11.96,0,0,1-4.107.6h-2.69V48.8A1.6,1.6,0,0,1,685,49.98a2.116,2.116,0,0,1-1.513.528,2.154,2.154,0,0,1-1.585-.624,1.8,1.8,0,0,1-.6-1.273Zm4.251,1.921v7.95h2.69a6.6,6.6,0,0,0,2.065-.288,4.552,4.552,0,0,0,1.441-.769,3,3,0,0,0,.841-1.081,2.955,2.955,0,0,0,.264-1.273v-.841a3.606,3.606,0,0,0-1.081-2.642,4.853,4.853,0,0,0-3.531-1.081h-2.69Z" transform="translate(-586 -26.54)"/>
  </g>
</svg>
