<svg xmlns="http://www.w3.org/2000/svg" viewBox="0 0 540.557 541.777">
  <defs>
    <style>
      .cls-1, .cls-6 {
        fill: #fff;
      }

      .cls-1 {
        stroke: #e9e9e9;
      }

      .cls-2 {
        fill: #febb46;
      }

      .cls-3 {
        fill: #3c3bee;
      }

      .cls-4, .cls-7 {
        fill: #fc901d;
      }

      .cls-5 {
        fill: #1e1dc4;
      }

      .cls-7 {
        stroke: #fc901d;
      }

      .cls-8 {
        stroke: none;
      }

      .cls-9 {
        fill: none;
      }
    </style>
  </defs>
  <g id="Group_860" data-name="Group 860" transform="translate(-280.443 -5726.327)">
    <g id="Ellipse_33" data-name="Ellipse 33" class="cls-1" transform="translate(539.021 5888.701)">
      <circle class="cls-8" cx="96.783" cy="96.783" r="96.783"/>
      <circle class="cls-9" cx="96.783" cy="96.783" r="96.283"/>
    </g>
    <g id="Ellipse_34" data-name="Ellipse 34" class="cls-1" transform="translate(663.923 5769)">
      <circle class="cls-8" cx="47.877" cy="47.877" r="47.877"/>
      <circle class="cls-9" cx="47.877" cy="47.877" r="47.377"/>
    </g>
    <g id="Ellipse_39" data-name="Ellipse 39" class="cls-1" transform="translate(280.443 5992.223)">
      <circle class="cls-8" cx="76.725" cy="76.725" r="76.725"/>
      <circle class="cls-9" cx="76.725" cy="76.725" r="76.225"/>
    </g>
    <g id="Ellipse_35" data-name="Ellipse 35" class="cls-1" transform="translate(697.446 6069.715)">
      <circle class="cls-8" cx="61.777" cy="61.777" r="61.777"/>
      <circle class="cls-9" cx="61.777" cy="61.777" r="61.277"/>
    </g>
    <g id="Ellipse_36" data-name="Ellipse 36" class="cls-1" transform="translate(370.165 6168.021)">
      <circle class="cls-8" cx="42.214" cy="42.214" r="42.214"/>
      <circle class="cls-9" cx="42.214" cy="42.214" r="41.714"/>
    </g>
    <g id="Ellipse_40" data-name="Ellipse 40" class="cls-1" transform="translate(446.593 5961.811)">
      <ellipse class="cls-8" cx="30.374" cy="30.888" rx="30.374" ry="30.888"/>
      <ellipse class="cls-9" cx="30.374" cy="30.888" rx="29.874" ry="30.388"/>
    </g>
    <g id="Ellipse_41" data-name="Ellipse 41" class="cls-1" transform="translate(656.943 6206.327)">
      <ellipse class="cls-8" cx="30.374" cy="30.888" rx="30.374" ry="30.888"/>
      <ellipse class="cls-9" cx="30.374" cy="30.888" rx="29.874" ry="30.388"/>
    </g>
    <g id="Ellipse_171" data-name="Ellipse 171" class="cls-1" transform="translate(339.943 5780.327)">
      <ellipse class="cls-8" cx="30.374" cy="30.888" rx="30.374" ry="30.888"/>
      <ellipse class="cls-9" cx="30.374" cy="30.888" rx="29.874" ry="30.388"/>
    </g>
    <g id="Ellipse_42" data-name="Ellipse 42" class="cls-1" transform="translate(509.697 5726.327)">
      <ellipse class="cls-8" cx="30.374" cy="30.888" rx="30.374" ry="30.888"/>
      <ellipse class="cls-9" cx="30.374" cy="30.888" rx="29.874" ry="30.388"/>
    </g>
    <g id="Ellipse_37" data-name="Ellipse 37" class="cls-1" transform="translate(489.34 6091.215)">
      <circle class="cls-8" cx="62.291" cy="62.291" r="62.291"/>
      <circle class="cls-9" cx="62.291" cy="62.291" r="61.791"/>
    </g>
    <g id="Ellipse_38" data-name="Ellipse 38" class="cls-1" transform="translate(423 5806)">
      <circle class="cls-8" cx="62.291" cy="62.291" r="62.291"/>
      <circle class="cls-9" cx="62.291" cy="62.291" r="61.791"/>
    </g>
    <g id="research" transform="translate(730.943 6152.582)">
      <path id="Path_604" data-name="Path 604" class="cls-2" d="M400.525,269.21h0a2.028,2.028,0,0,1-2.868,0l-13.29-13.29,2.868-2.868,13.29,13.29A2.028,2.028,0,0,1,400.525,269.21Z" transform="translate(-333.916 -278.776)"/>
      <path id="Path_605" data-name="Path 605" class="cls-3" d="M42.068,116.426H.525A.525.525,0,0,1,0,115.9V57.185a.525.525,0,0,1,.525-.525H42.068a.525.525,0,0,1,.525.525V115.9A.525.525,0,0,1,42.068,116.426Z" transform="translate(0 -108.163)"/>
      <path id="Path_606" data-name="Path 606" class="cls-4" d="M41.069,331.193H34.006a.525.525,0,0,1-.525-.525V309.813a.525.525,0,0,1,.525-.525h7.063a.525.525,0,0,1,.525.525v20.855A.525.525,0,0,1,41.069,331.193Z" transform="translate(-29.086 -327.632)"/>
      <path id="Path_607" data-name="Path 607" class="cls-4" d="M137.906,277.5h-7.063a.525.525,0,0,1-.525-.525V248a.525.525,0,0,1,.525-.525h7.063a.525.525,0,0,1,.525.525V276.97A.525.525,0,0,1,137.906,277.5Z" transform="translate(-113.213 -273.934)"/>
      <path id="Path_608" data-name="Path 608" class="cls-2" d="M236.8,297.184H229.74a.525.525,0,0,1-.525-.525V270.666a.525.525,0,0,1,.525-.525H236.8a.525.525,0,0,1,.525.525v25.993A.525.525,0,0,1,236.8,297.184Z" transform="translate(-199.129 -293.623)"/>
      <path id="Path_609" data-name="Path 609" class="cls-4" d="M64.386,309.288v21.905h3.531a.525.525,0,0,0,.525-.525V309.813a.525.525,0,0,0-.525-.525Z" transform="translate(-55.935 -327.632)"/>
      <path id="Path_610" data-name="Path 610" class="cls-4" d="M161.223,247.477V277.5h3.531a.525.525,0,0,0,.525-.525V248a.525.525,0,0,0-.525-.525Z" transform="translate(-140.062 -273.934)"/>
      <path id="Path_611" data-name="Path 611" class="cls-2" d="M260.121,270.141v27.043h3.531a.525.525,0,0,0,.525-.525V270.666a.525.525,0,0,0-.525-.525Z" transform="translate(-225.979 -293.623)"/>
      <g id="Group_750" data-name="Group 750" transform="translate(5.033 -47.048)">
        <path id="Path_612" data-name="Path 612" class="cls-2" d="M39.327,92.57H69.075a.984.984,0,1,0,0-1.969H39.327a.984.984,0,1,0,0,1.969Z" transform="translate(-38.343 -90.601)"/>
        <path id="Path_613" data-name="Path 613" class="cls-2" d="M69.075,124.94H39.327a.984.984,0,0,0,0,1.969H69.075a.984.984,0,1,0,0-1.969Z" transform="translate(-38.343 -120.433)"/>
        <path id="Path_614" data-name="Path 614" class="cls-2" d="M69.075,159.28H39.327a.984.984,0,1,0,0,1.969H69.075a.984.984,0,1,0,0-1.969Z" transform="translate(-38.343 -150.266)"/>
        <path id="Path_615" data-name="Path 615" class="cls-2" d="M46.91,193.619H39.327a.984.984,0,1,0,0,1.969H46.91a.984.984,0,1,0,0-1.969Z" transform="translate(-38.343 -180.097)"/>
      </g>
      <path id="Path_618" data-name="Path 618" class="cls-2" d="M21.5,0A21.5,21.5,0,1,1,0,21.5,21.5,21.5,0,0,1,21.5,0Z" transform="translate(8.593 -37.44) rotate(-45)"/>
      <path id="Path_616" data-name="Path 616" class="cls-3" d="M194.055,60.736a17.443,17.443,0,1,1,0-24.668A17.463,17.463,0,0,1,194.055,60.736Z" transform="translate(-142.723 -85.842)"/>
      <path id="Path_617" data-name="Path 617" class="cls-5" d="M296.027,36.072a17.421,17.421,0,0,0-14.362-4.983,17.434,17.434,0,0,1,0,34.634,17.436,17.436,0,0,0,14.362-29.651Z" transform="translate(-244.695 -85.847)"/>
    </g>
    <g id="graph" transform="translate(589.43 5930.52)">
      <path id="Path_619" data-name="Path 619" class="cls-5" d="M204.746,90.151,214.1,80.8l7.179,7.179-9.349,9.349Zm0,0" transform="translate(-165.752 -65.412)"/>
      <path id="Path_620" data-name="Path 620" class="cls-3" d="M95.461,75.816,120,51.274l7.012,7.012L102.473,82.829Zm0,0" transform="translate(-77.28 -41.509)"/>
      <path id="Path_621" data-name="Path 621" class="cls-3" d="M252.949,24.1l3.506,3.506L236.586,47.473l7.013,7.013,19.868-19.868,3.506,3.506,3.507-17.529Zm0,0" transform="translate(-191.528 -16.672)"/>
      <path id="Path_622" data-name="Path 622" class="cls-2" d="M43.391,399.188H56.612v19.834H43.391Zm0,0" transform="translate(-35.127 -323.16)"/>
      <path id="Path_623" data-name="Path 623" class="cls-4" d="M164.883,338.441H178.1v31.4H164.883Zm0,0" transform="translate(-133.481 -273.983)"/>
      <path id="Path_624" data-name="Path 624" class="cls-2" d="M286.371,251.66h13.223v47.93H286.371Zm0,0" transform="translate(-231.831 -203.73)"/>
      <path id="Path_625" data-name="Path 625" class="cls-4" d="M407.863,173.559h13.222v62.805H407.863Zm0,0" transform="translate(-330.184 -140.504)"/>
      <g id="Group_752" data-name="Group 752" transform="translate(-0.001 0)">
        <path id="Path_626" data-name="Path 626" class="cls-5" d="M95.859,97.513H1.652A1.653,1.653,0,0,1,0,95.86V1.653a1.653,1.653,0,1,1,3.305,0V94.208H95.859a1.653,1.653,0,1,1,0,3.305Zm0,0" transform="translate(0.001 0)"/>
        <path id="Path_627" data-name="Path 627" class="cls-5" d="M69.422,355.8h3.306V359.1H69.422Zm0,0" transform="translate(-56.2 -288.033)"/>
        <path id="Path_628" data-name="Path 628" class="cls-5" d="M190.914,295.051h3.305v3.305h-3.305Zm0,0" transform="translate(-154.553 -238.857)"/>
        <path id="Path_629" data-name="Path 629" class="cls-5" d="M312.406,208.27h3.306v3.306h-3.306Zm0,0" transform="translate(-252.906 -168.604)"/>
        <path id="Path_630" data-name="Path 630" class="cls-5" d="M433.9,130.168H437.2v3.306H433.9Zm0,0" transform="translate(-351.26 -105.377)"/>
      </g>
    </g>
    <g id="increase" transform="translate(513.656 6110)">
      <path id="Path_631" data-name="Path 631" class="cls-4" d="M41.515,250.055,25.758,230,10,250.055h6.3v18.909H35.212V250.055Zm0,0" transform="translate(-8.568 -197.052)"/>
      <path id="Path_632" data-name="Path 632" class="cls-2" d="M313.515,250.055,297.758,230,282,250.055h6.3v18.909h18.909V250.055Zm0,0" transform="translate(-241.603 -197.052)"/>
      <path id="Path_633" data-name="Path 633" class="cls-5" d="M166.813,32.92,148.906,10,131,32.92h7.163V80.48H159.65V32.92Zm0,0" transform="translate(-112.234 -8.568)"/>
      <path id="Path_634" data-name="Path 634" class="cls-6" d="M73.039,52.118,57.281,32.062a1.433,1.433,0,0,0-2.253,0l-6.179,7.865V25.785h5.73a1.432,1.432,0,0,0,1.129-2.314L37.8.55a1.432,1.432,0,0,0-2.257,0L17.637,23.471a1.432,1.432,0,0,0,1.129,2.314H24.5V39.927l-6.179-7.865a1.433,1.433,0,0,0-2.253,0L.306,52.118a1.432,1.432,0,0,0,1.126,2.318H6.3V71.912a1.432,1.432,0,0,0,1.433,1.433H65.609a1.432,1.432,0,0,0,1.433-1.433V54.435h4.871a1.433,1.433,0,0,0,1.126-2.318ZM24.5,70.48H9.168V53A1.432,1.432,0,0,0,7.735,51.57H4.379l12.81-16.3,7.306,9.3ZM45.983,24.353v40.4H42.4a1.433,1.433,0,1,0,0,2.865h3.581V70.48H27.361V67.615h3.581a1.433,1.433,0,1,0,0-2.865H27.361v-40.4a1.432,1.432,0,0,0-1.433-1.433H21.7L36.672,3.759,51.641,22.92H47.416a1.432,1.432,0,0,0-1.433,1.433ZM65.609,51.57A1.432,1.432,0,0,0,64.177,53V70.48H48.849V44.565l7.306-9.3,12.81,16.3Zm0,0"/>
      <path id="Path_635" data-name="Path 635" class="cls-6" d="M247.433,452a1.433,1.433,0,1,0,1.433,1.432A1.435,1.435,0,0,0,247.433,452Zm0,0" transform="translate(-210.76 -387.25)"/>
      <path id="Path_636" data-name="Path 636" class="cls-6" d="M235.963,123.425a1.433,1.433,0,0,0-2.333-1.663l-5.074,7.117a1.432,1.432,0,1,0,2.333,1.663Zm0,0" transform="translate(-195.588 -103.805)"/>
      <path id="Path_637" data-name="Path 637" class="cls-6" d="M223.865,122.433A1.433,1.433,0,1,1,222.432,121,1.432,1.432,0,0,1,223.865,122.433Zm0,0" transform="translate(-189.342 -103.667)"/>
      <path id="Path_638" data-name="Path 638" class="cls-6" d="M273.865,172.432A1.433,1.433,0,1,1,272.432,171,1.432,1.432,0,0,1,273.865,172.432Zm0,0" transform="translate(-232.179 -146.504)"/>
    </g>
    <g id="pie-chart" transform="translate(681.089 5786.861)">
      <path id="Path_639" data-name="Path 639" class="cls-2" d="M31,27.867H58.829A29.969,29.969,0,0,0,31,.038Z" transform="translate(1.042 0)"/>
      <path id="Path_640" data-name="Path 640" class="cls-3" d="M50.979,49.208a29.862,29.862,0,0,0,7.87-18.246H32.733Z" transform="translate(1.1 1.04)"/>
      <path id="Path_641" data-name="Path 641" class="cls-5" d="M27.908,29.078V.038A29.96,29.96,0,0,0,7.374,49.612Z" transform="translate(0 0)"/>
      <path id="Path_642" data-name="Path 642" class="cls-4" d="M29.034,32.376,9.962,51.448A29.936,29.936,0,0,0,48.66,52Z" transform="translate(0.335 1.087)"/>
    </g>
    <g id="training" transform="translate(446.699 5829)">
      <path id="Path_655" data-name="Path 655" class="cls-2" d="M286.735,30.617H264.3V0A30.193,30.193,0,0,1,275.03,5.371a29.771,29.771,0,0,1,6.295,6.638,30.389,30.389,0,0,1,3,5.411H277.5a3.959,3.959,0,0,0,0,7.918h8.973a30.1,30.1,0,0,1,.264,3.959Zm0,0" transform="translate(-220.451)"/>
      <path id="Path_656" data-name="Path 656" class="cls-3" d="M333.5,32.118l-5.411-5.411a29.771,29.771,0,0,0-6.295-6.638L324.26,17.6h6.6l7.918,5.279h5.279V40.036h-19.8a3.959,3.959,0,0,1,0-7.918Zm0,0" transform="translate(-267.213 -14.698)"/>
      <path id="Path_657" data-name="Path 657" class="cls-5" d="M335.635,36.431,338.9,39.7a30.573,30.573,0,0,0-1.947-3.268,29.77,29.77,0,0,0-6.295-6.638c-.248-.194-.519-.359-.773-.546l-.546.546A29.769,29.769,0,0,1,335.635,36.431Zm0,0" transform="translate(-274.761 -24.422)"/>
      <path id="Path_658" data-name="Path 658" class="cls-7" d="M58.367,88.946a5.277,5.277,0,0,1-5.279,5.279H38.572V99.5H8.219V83.668A27.038,27.038,0,0,1,.3,64.545V55.954a30.338,30.338,0,0,1,38.271-29.3V57.274H61.006v2.639l6.6,17.156H58.367Zm0,0" transform="translate(0 -21.379)"/>
      <path id="Path_659" data-name="Path 659" class="cls-4" d="M333.233,140.248H324.26a3.943,3.943,0,0,1-3.717-2.638,3.922,3.922,0,0,0,3.717,5.277h9.193C333.413,142,333.348,141.115,333.233,140.248Zm0,0" transform="translate(-267.213 -114.91)"/>
      <path id="Path_660" data-name="Path 660" class="cls-5" d="M305.539,346.84A9.249,9.249,0,0,1,296.3,337.6h2.639a6.606,6.606,0,0,0,6.6,6.6Zm0,0" transform="translate(-247.172 -281.911)"/>
      <path id="Path_661" data-name="Path 661" class="cls-3" d="M192.3,441.6h6.6v2.639h-6.6Zm0,0" transform="translate(-160.328 -368.756)"/>
      <path id="Path_662" data-name="Path 662" class="cls-3" d="M160.3,441.6h2.639v2.639H160.3Zm0,0" transform="translate(-133.607 -368.756)"/>
      <path id="Path_663" data-name="Path 663" class="cls-3" d="M128.3,441.6h2.639v2.639H128.3Zm0,0" transform="translate(-106.885 -368.756)"/>
      <path id="Path_664" data-name="Path 664" class="cls-3" d="M96.3,441.6H98.94v2.639H96.3Zm0,0" transform="translate(-80.164 -368.756)"/>
      <g id="Group_753" data-name="Group 753" transform="translate(25.375 8.182)">
        <path id="Path_665" data-name="Path 665" class="cls-3" d="M192.3,209.6h2.639v2.639H192.3Zm0,0" transform="translate(-185.703 -183.208)"/>
        <path id="Path_666" data-name="Path 666" class="cls-3" d="M192.3,177.6h2.639v2.639H192.3Zm0,0" transform="translate(-185.703 -156.487)"/>
        <path id="Path_667" data-name="Path 667" class="cls-3" d="M160.3,177.6h2.639v2.639H160.3Zm0,0" transform="translate(-158.981 -156.487)"/>
        <path id="Path_668" data-name="Path 668" class="cls-3" d="M192.3,145.6h2.639v2.639H192.3Zm0,0" transform="translate(-185.703 -129.766)"/>
        <path id="Path_669" data-name="Path 669" class="cls-3" d="M192.3,113.6h2.639v2.639H192.3Zm0,0" transform="translate(-185.703 -103.045)"/>
        <path id="Path_670" data-name="Path 670" class="cls-3" d="M160.3,113.6h2.639v2.639H160.3Zm0,0" transform="translate(-158.981 -103.045)"/>
        <path id="Path_671" data-name="Path 671" class="cls-3" d="M192.3,81.6h2.639v2.639H192.3Zm0,0" transform="translate(-185.703 -76.323)"/>
        <path id="Path_672" data-name="Path 672" class="cls-3" d="M192.3,49.6h2.639v2.639H192.3Zm0,0" transform="translate(-185.703 -49.602)"/>
        <path id="Path_673" data-name="Path 673" class="cls-3" d="M152.3,49.6h2.639v2.639H152.3Zm0,0" transform="translate(-152.301 -49.602)"/>
        <path id="Path_674" data-name="Path 674" class="cls-3" d="M192.3,241.6h2.639v2.639H192.3Zm0,0" transform="translate(-185.703 -209.93)"/>
        <path id="Path_675" data-name="Path 675" class="cls-3" d="M192.3,273.6h2.639v2.639H192.3Zm0,0" transform="translate(-185.703 -236.651)"/>
        <path id="Path_676" data-name="Path 676" class="cls-3" d="M160.3,241.6h2.639v2.639H160.3Zm0,0" transform="translate(-158.981 -209.93)"/>
        <path id="Path_677" data-name="Path 677" class="cls-3" d="M224.3,241.6h2.639v2.639H224.3Zm0,0" transform="translate(-212.424 -209.93)"/>
        <path id="Path_678" data-name="Path 678" class="cls-3" d="M256.3,241.6h2.639v2.639H256.3Zm0,0" transform="translate(-239.145 -209.93)"/>
        <path id="Path_679" data-name="Path 679" class="cls-3" d="M256.3,273.6h2.639v2.639H256.3Zm0,0" transform="translate(-239.145 -236.651)"/>
        <path id="Path_680" data-name="Path 680" class="cls-3" d="M288.3,241.6h2.639v2.639H288.3Zm0,0" transform="translate(-265.867 -209.93)"/>
        <path id="Path_681" data-name="Path 681" class="cls-3" d="M320.3,241.6h2.639v2.639H320.3Zm0,0" transform="translate(-292.588 -209.93)"/>
        <path id="Path_682" data-name="Path 682" class="cls-3" d="M320.3,273.6h2.639v2.639H320.3Zm0,0" transform="translate(-292.588 -236.651)"/>
      </g>
    </g>
    <g id="Group_757" data-name="Group 757" transform="translate(-5086 26)">
      <g id="Group_756" data-name="Group 756" transform="translate(5476.884 6167)">
        <path id="Path_683" data-name="Path 683" class="cls-5" d="M41.138,0H2.078A1.946,1.946,0,0,0,0,1.774V27.666H43.216V1.774A1.946,1.946,0,0,0,41.138,0Z"/>
        <rect id="Rectangle_604" data-name="Rectangle 604" class="cls-3" width="38.196" height="22.88" transform="translate(2.498 2.475)"/>
        <g id="Group_754" data-name="Group 754" transform="translate(11.452 32.476)">
          <path id="Path_684" data-name="Path 684" class="cls-2" d="M59.193,139.1v7.121H49.061a1.748,1.748,0,0,1,1.611-2.031c3.269-.327,2.848-5.09,2.848-5.09Z" transform="translate(-49.049 -139.1)"/>
          <path id="Path_685" data-name="Path 685" class="cls-2" d="M92.5,139.1v7.121h10.156a1.748,1.748,0,0,0-1.611-2.031c-3.269-.327-2.848-5.09-2.848-5.09Z" transform="translate(-82.355 -139.1)"/>
        </g>
        <path id="Path_686" data-name="Path 686" class="cls-4" d="M67.6,141.2H79.227a16.224,16.224,0,0,1-.117-2.1H67.74A13.852,13.852,0,0,1,67.6,141.2Z" transform="translate(-51.817 -106.624)"/>
        <g id="Group_755" data-name="Group 755" transform="translate(0 27.666)">
          <path id="Path_687" data-name="Path 687" class="cls-2" d="M0,121.535a1.946,1.946,0,0,0,2.078,1.774h39.06a1.946,1.946,0,0,0,2.078-1.774V118.5H0Z" transform="translate(0 -118.5)"/>
        </g>
      </g>
      <rect id="Rectangle_605" data-name="Rectangle 605" class="cls-5" width="25" height="2" rx="1" transform="translate(5483 6173)"/>
      <rect id="Rectangle_606" data-name="Rectangle 606" class="cls-5" width="25" height="2" rx="1" transform="translate(5483 6177)"/>
      <rect id="Rectangle_607" data-name="Rectangle 607" class="cls-5" width="9" height="2" rx="1" transform="translate(5483 6181)"/>
      <rect id="Rectangle_609" data-name="Rectangle 609" class="cls-5" width="14" height="2" rx="1" transform="translate(5494 6181)"/>
      <rect id="Rectangle_608" data-name="Rectangle 608" class="cls-5" width="16" height="2" rx="1" transform="translate(5483 6185)"/>
      <rect id="Rectangle_610" data-name="Rectangle 610" class="cls-5" width="2" height="2" rx="1" transform="translate(5500 6185)"/>
      <rect id="Rectangle_611" data-name="Rectangle 611" class="cls-5" width="2" height="2" rx="1" transform="translate(5505 6185)"/>
    </g>
    <path id="Path_688" data-name="Path 688" class="cls-5" d="M72.92,49.72a27.353,27.353,0,1,1,0-38.683A27.293,27.293,0,0,1,72.92,49.72Z" transform="translate(316.191 6022.555)"/>
    <rect id="Rectangle_612" data-name="Rectangle 612" class="cls-2" width="30.968" height="5.786" transform="matrix(0.707, -0.707, 0.707, 0.707, 326.109, 6092.383)"/>
    <rect id="Rectangle_613" data-name="Rectangle 613" class="cls-2" width="6.644" height="5.786" transform="matrix(0.707, -0.707, 0.707, 0.707, 343.441, 6075.116)"/>
    <rect id="Rectangle_614" data-name="Rectangle 614" class="cls-4" width="34.612" height="12.859" transform="translate(314.316 6098.834) rotate(-45)"/>
    <rect id="Rectangle_615" data-name="Rectangle 615" class="cls-4" width="34.612" height="6.429" transform="translate(318.905 6103.31) rotate(-45)"/>
    <path id="Path_689" data-name="Path 689" class="cls-3" d="M32.1,52.187a30.611,30.611,0,1,1,43.291,0A30.721,30.721,0,0,1,32.1,52.187ZM70.779,13.611a24.1,24.1,0,1,0,0,34.076A24.059,24.059,0,0,0,70.779,13.611Z" transform="translate(315.975 6022.339)"/>
    <path id="Path_690" data-name="Path 690" class="cls-3" d="M68.53,27.765A6.965,6.965,0,1,1,61.565,20.8,6.951,6.951,0,0,1,68.53,27.765Z" transform="translate(318.223 6023.83)"/>
    <g id="Group_761" data-name="Group 761" transform="translate(668.357 6221.636)">
      <g id="Group_759" data-name="Group 759" transform="translate(24.285 12.994)">
        <path id="Path_691" data-name="Path 691" class="cls-2" d="M64.4,33.854a6.234,6.234,0,0,0-.681-1.655c1.119-1.217,1.8-2.044,1.7-2.141L63.77,28.4c-.1-.1-.876.584-2.141,1.7a6.234,6.234,0,0,0-1.655-.681,11.377,11.377,0,0,0-.292-2.725H57.346a8.636,8.636,0,0,0-.292,2.725,6.234,6.234,0,0,0-1.655.681c-1.217-1.119-2.044-1.8-2.141-1.7L51.6,30.058c-.1.1.584.876,1.7,2.141a6.234,6.234,0,0,0-.681,1.655,11.377,11.377,0,0,0-2.725.292v2.336a8.636,8.636,0,0,0,2.725.292,6.234,6.234,0,0,0,.681,1.655c-1.119,1.217-1.8,2.044-1.7,2.141l1.655,1.655c.1.1.876-.584,2.141-1.7a6.234,6.234,0,0,0,1.655.681,11.377,11.377,0,0,0,.292,2.725h2.336a8.636,8.636,0,0,0,.292-2.725,6.234,6.234,0,0,0,1.655-.681c1.217,1.119,2.044,1.8,2.141,1.7l1.655-1.655c.1-.1-.584-.876-1.7-2.141a6.234,6.234,0,0,0,.681-1.655,11.377,11.377,0,0,0,2.725-.292V34.146A8.965,8.965,0,0,0,64.4,33.854Z" transform="translate(-49.9 -26.7)"/>
        <path id="Path_692" data-name="Path 692" class="cls-3" d="M67.284,40.242A3.942,3.942,0,1,1,63.342,36.3,3.989,3.989,0,0,1,67.284,40.242Z" transform="translate(-54.777 -31.628)"/>
        <path id="Path_693" data-name="Path 693" class="cls-4" d="M67.451,41.525A2.725,2.725,0,1,1,64.725,38.8,2.752,2.752,0,0,1,67.451,41.525Z" transform="translate(-56.111 -32.911)"/>
      </g>
      <g id="Group_760" data-name="Group 760">
        <path id="Path_694" data-name="Path 694" class="cls-5" d="M20.878,10.269A8.487,8.487,0,0,0,19.9,7.884c1.606-1.752,2.579-2.92,2.433-3.066L19.953,2.433c-.146-.146-1.314.827-3.066,2.433A7.936,7.936,0,0,0,14.5,3.893C14.405,1.509,14.259,0,14.065,0H10.658c-.195,0-.341,1.509-.438,3.893a8.487,8.487,0,0,0-2.385.973C6.083,3.261,4.915,2.287,4.769,2.433L2.433,4.818c-.146.1.827,1.314,2.433,3.066a7.936,7.936,0,0,0-.973,2.385c-2.385.1-3.893.243-3.893.438v3.407c0,.195,1.509.341,3.893.438a8.487,8.487,0,0,0,.973,2.385C3.261,18.688,2.287,19.856,2.433,20l2.385,2.385c.146.146,1.314-.827,3.066-2.433a7.936,7.936,0,0,0,2.385.973c.1,2.385.243,3.893.438,3.893h3.407c.195,0,.341-1.509.438-3.893a8.487,8.487,0,0,0,2.385-.973c1.752,1.606,2.92,2.579,3.066,2.433L22.387,20c.1-.146-.827-1.314-2.433-3.066a7.936,7.936,0,0,0,.973-2.385c2.385-.1,3.893-.243,3.893-.438V10.707C24.771,10.512,23.311,10.366,20.878,10.269Z"/>
        <path id="Path_695" data-name="Path 695" class="cls-2" d="M25.191,19.545A5.645,5.645,0,1,1,19.545,13.9,5.649,5.649,0,0,1,25.191,19.545Z" transform="translate(-7.135 -7.135)"/>
        <path id="Path_696" data-name="Path 696" class="cls-3" d="M25.184,21.342A3.942,3.942,0,1,1,21.242,17.4,3.926,3.926,0,0,1,25.184,21.342Z" transform="translate(-8.881 -8.932)"/>
      </g>
    </g>
    <g id="Group_789" data-name="Group 789" transform="translate(351.357 5795.636)">
      <g id="Group_759-2" data-name="Group 759" transform="translate(24.285 12.994)">
        <path id="Path_691-2" data-name="Path 691" class="cls-2" d="M64.4,33.854a6.234,6.234,0,0,0-.681-1.655c1.119-1.217,1.8-2.044,1.7-2.141L63.77,28.4c-.1-.1-.876.584-2.141,1.7a6.234,6.234,0,0,0-1.655-.681,11.377,11.377,0,0,0-.292-2.725H57.346a8.636,8.636,0,0,0-.292,2.725,6.234,6.234,0,0,0-1.655.681c-1.217-1.119-2.044-1.8-2.141-1.7L51.6,30.058c-.1.1.584.876,1.7,2.141a6.234,6.234,0,0,0-.681,1.655,11.377,11.377,0,0,0-2.725.292v2.336a8.636,8.636,0,0,0,2.725.292,6.234,6.234,0,0,0,.681,1.655c-1.119,1.217-1.8,2.044-1.7,2.141l1.655,1.655c.1.1.876-.584,2.141-1.7a6.234,6.234,0,0,0,1.655.681,11.377,11.377,0,0,0,.292,2.725h2.336a8.636,8.636,0,0,0,.292-2.725,6.234,6.234,0,0,0,1.655-.681c1.217,1.119,2.044,1.8,2.141,1.7l1.655-1.655c.1-.1-.584-.876-1.7-2.141a6.234,6.234,0,0,0,.681-1.655,11.377,11.377,0,0,0,2.725-.292V34.146A8.965,8.965,0,0,0,64.4,33.854Z" transform="translate(-49.9 -26.7)"/>
        <path id="Path_692-2" data-name="Path 692" class="cls-3" d="M67.284,40.242A3.942,3.942,0,1,1,63.342,36.3,3.989,3.989,0,0,1,67.284,40.242Z" transform="translate(-54.777 -31.628)"/>
        <path id="Path_693-2" data-name="Path 693" class="cls-4" d="M67.451,41.525A2.725,2.725,0,1,1,64.725,38.8,2.752,2.752,0,0,1,67.451,41.525Z" transform="translate(-56.111 -32.911)"/>
      </g>
      <g id="Group_760-2" data-name="Group 760">
        <path id="Path_694-2" data-name="Path 694" class="cls-5" d="M20.878,10.269A8.487,8.487,0,0,0,19.9,7.884c1.606-1.752,2.579-2.92,2.433-3.066L19.953,2.433c-.146-.146-1.314.827-3.066,2.433A7.936,7.936,0,0,0,14.5,3.893C14.405,1.509,14.259,0,14.065,0H10.658c-.195,0-.341,1.509-.438,3.893a8.487,8.487,0,0,0-2.385.973C6.083,3.261,4.915,2.287,4.769,2.433L2.433,4.818c-.146.1.827,1.314,2.433,3.066a7.936,7.936,0,0,0-.973,2.385c-2.385.1-3.893.243-3.893.438v3.407c0,.195,1.509.341,3.893.438a8.487,8.487,0,0,0,.973,2.385C3.261,18.688,2.287,19.856,2.433,20l2.385,2.385c.146.146,1.314-.827,3.066-2.433a7.936,7.936,0,0,0,2.385.973c.1,2.385.243,3.893.438,3.893h3.407c.195,0,.341-1.509.438-3.893a8.487,8.487,0,0,0,2.385-.973c1.752,1.606,2.92,2.579,3.066,2.433L22.387,20c.1-.146-.827-1.314-2.433-3.066a7.936,7.936,0,0,0,.973-2.385c2.385-.1,3.893-.243,3.893-.438V10.707C24.771,10.512,23.311,10.366,20.878,10.269Z"/>
        <path id="Path_695-2" data-name="Path 695" class="cls-2" d="M25.191,19.545A5.645,5.645,0,1,1,19.545,13.9,5.649,5.649,0,0,1,25.191,19.545Z" transform="translate(-7.135 -7.135)"/>
        <path id="Path_696-2" data-name="Path 696" class="cls-3" d="M25.184,21.342A3.942,3.942,0,1,1,21.242,17.4,3.926,3.926,0,0,1,25.184,21.342Z" transform="translate(-8.881 -8.932)"/>
      </g>
    </g>
    <g id="Group_767" data-name="Group 767" transform="translate(455.699 5968.975)">
      <path id="Path_701" data-name="Path 701" class="cls-4" d="M17.831,155.7,13.9,162.514H51.917L47.987,155.7Z" transform="translate(-11.75 -127.004)"/>
      <path id="Path_702" data-name="Path 702" class="cls-4" d="M100.038,13.8,96.5,19.94h7.076Z" transform="translate(-78.888 -11.665)"/>
      <path id="Path_703" data-name="Path 703" class="cls-3" d="M46,114.1H72l-3.557-6.5H49.557Z" transform="translate(-37.841 -87.907)"/>
    </g>
    <path id="Path_704" data-name="Path 704" class="cls-4" d="M360.455,7.22l-.058-.086L358.446,5.1a.326.326,0,0,1,.173-.489,2.076,2.076,0,0,0,.82-.479,1.975,1.975,0,0,0,.072-2.828,1.973,1.973,0,0,0-2.828-.053,2.011,2.011,0,0,0-.513.8.322.322,0,0,1-.494.149L353.73.16,353.644.1a.326.326,0,0,0-.446,0l-2.253,2.162a.3.3,0,0,1-.321-.216A2.037,2.037,0,0,0,348.947.635a.856.856,0,0,0-.292,0,2.053,2.053,0,0,0-1.376,3.4,1.848,1.848,0,0,0,.762.484.3.3,0,0,1,.192.35l-2.272,2.181a.32.32,0,0,0-.014.455L348,9.641l.038.029.014.014a.323.323,0,0,0,.542-.163,2.177,2.177,0,0,1,1.783-1.562,1.966,1.966,0,0,1,.556.038,2.218,2.218,0,0,1,1,.566,2.194,2.194,0,0,1,.522,1.026,2.153,2.153,0,0,1,.014.556,2.167,2.167,0,0,1-1.644,1.706.32.32,0,0,0-.187.532l.014.014.029.038,2.042,2.142a.32.32,0,0,0,.455,0l2.277-2.166a.3.3,0,0,1,.34.206,1.817,1.817,0,0,0,.451.781,2.058,2.058,0,0,0,3.465-1.222.857.857,0,0,0,.01-.292,2.046,2.046,0,0,0-1.337-1.74.3.3,0,0,1-.2-.331l2.262-2.157A.335.335,0,0,0,360.455,7.22Z" transform="translate(195.375 5742.045)"/>
    <path id="Path_705" data-name="Path 705" class="cls-5" d="M237.221,285.264h.019l.048,0,2.962.014a.325.325,0,0,0,.321-.326l.014-3.144a.3.3,0,0,1,.388-.1,1.87,1.87,0,0,0,.877.216,2.056,2.056,0,0,0,1.519-3.345.783.783,0,0,0-.206-.211,2.046,2.046,0,0,0-2.181-.24.307.307,0,0,1-.379-.081l.014-3.125a.319.319,0,0,0-.3-.326l-.1-.019H237.4a.323.323,0,0,1-.23-.46,2.036,2.036,0,0,0,.22-.92,1.994,1.994,0,1,0-3.767.911.324.324,0,0,1-.235.46l-2.818-.014-.1.019a.325.325,0,0,0-.273.187.422.422,0,0,1,.029.158l0,3.226-.177-.034a.29.29,0,0,1-.259,0l-.053-.024a2.056,2.056,0,0,0-.292.024l-.024,0-.024,0a1.845,1.845,0,0,0-.307-.038,1.8,1.8,0,0,0-1.764,1.606,1.941,1.941,0,0,0-.019.24,2.194,2.194,0,0,0,.273,1.026q.057.115.129.23a.6.6,0,0,0,.163.168,2.078,2.078,0,0,0,1.2.412,2.012,2.012,0,0,0,.3-.024l.024,0,.024,0c.081.014.149.029.206.034.048-.019.1-.043.149-.067a.3.3,0,0,1,.3.019l.139-.029,0,3.274a.561.561,0,0,1-.019.125.316.316,0,0,0,.283.187h2.962l.043,0h.019a.32.32,0,0,0,.254-.5,2.17,2.17,0,0,1,.11-2.368,2.036,2.036,0,0,1,.412-.374,1.991,1.991,0,0,1,2.2,0,2.061,2.061,0,0,1,.412.379,2.176,2.176,0,0,1,.1,2.368A.31.31,0,0,0,237.221,285.264Z" transform="translate(308.251 5483.869)"/>
    <path id="Path_706" data-name="Path 706" class="cls-5" d="M10.319,65.379l0,.019,0,0-.019.067a.168.168,0,0,0,.129.158l2.794,0a.444.444,0,0,1,.11.019h0a.478.478,0,0,1,.264.1l.019-.086.014-3.144a.3.3,0,0,1,.388-.1,1.87,1.87,0,0,0,.877.216,2.056,2.056,0,0,0,1.519-3.345.784.784,0,0,0-.206-.211,2.046,2.046,0,0,0-2.181-.24.307.307,0,0,1-.379-.081l.014-3.12a.319.319,0,0,0-.3-.326l-.1-.019H10.434a.321.321,0,0,1-.235-.46,2.051,2.051,0,0,0,.22-.92,1.994,1.994,0,1,0-3.988-.01,2.01,2.01,0,0,0,.22.925.324.324,0,0,1-.235.46l-2.823-.029-.1.019a.323.323,0,0,0-.307.326l0,3.12a.307.307,0,0,1-.379.081,2.033,2.033,0,0,0-2.181.23.861.861,0,0,0-.206.211,2.053,2.053,0,0,0,1.5,3.35,1.926,1.926,0,0,0,.877-.211.3.3,0,0,1,.383.105l0,3.144a.408.408,0,0,0,.019.11.482.482,0,0,1,.259-.091h0a.378.378,0,0,1,.11-.019l2.794,0a.168.168,0,0,0,.129-.158L6.47,65.4l0-.01,0-.01,0-.01a2.139,2.139,0,0,1-.225-.959h0v-.01h0v0a2.283,2.283,0,0,1,.1-.613,2.114,2.114,0,0,1,2.013-1.553h.1a2.114,2.114,0,0,1,2.013,1.553,2.283,2.283,0,0,1,.1.613v0A2.185,2.185,0,0,1,10.319,65.379Z" transform="translate(524.676 5692.658)"/>
    <path id="Path_707" data-name="Path 707" class="cls-3" d="M14.829,280.921a2.052,2.052,0,0,1,1.376-.532v0a2.375,2.375,0,0,1,.345.038,2.348,2.348,0,0,1,.316-.024c.053,0,.105,0,.158.01l0-2.842a.158.158,0,0,0-.139-.163l-.01,0h-.024l-.024-.01-.048-.01-2.833,0-.014,0a.479.479,0,0,1-.393-.436l-.01-.043a.443.443,0,0,1,.048-.2h0l0-.014,0,0a1.9,1.9,0,0,0,.2-.839v0a1.947,1.947,0,0,0-.081-.522,1.788,1.788,0,0,0-1.7-1.318h-.091a1.686,1.686,0,0,0-1.011.336,1.829,1.829,0,0,0-.685.983,2.045,2.045,0,0,0-.062.3,1.786,1.786,0,0,0-.019.225h0v0a1.835,1.835,0,0,0,.2.839l0,0,0,.01,0,.01h0a.5.5,0,0,1,.048.2l-.01.038a.488.488,0,0,1-.393.441l-.014,0-2.833,0-.024,0-.024,0-.034,0H7.045a.159.159,0,0,0-.149.163l0,3.182-.038.043a.474.474,0,0,1-.364.173.493.493,0,0,1-.216-.053,1.734,1.734,0,0,0-.8-.2,2.088,2.088,0,0,0-1.213.422.678.678,0,0,0-.163.168A2.236,2.236,0,0,0,3.7,282.56a1.817,1.817,0,0,0,1.778,1.845h0a1.734,1.734,0,0,0,.8-.2.454.454,0,0,1,.59.149l.029.043,0,3.192a.162.162,0,0,0,.158.168l2.948,0,.048,0h.034a.152.152,0,0,0,.105-.043.188.188,0,0,0,.043-.115l-.029-.1a2.206,2.206,0,0,1-.326-1.155,2.6,2.6,0,0,1,.427-1.385l0-.01,0,0a2.117,2.117,0,0,1,.446-.407l0,0,0,0a2.341,2.341,0,0,1,1.184-.355h0a2.341,2.341,0,0,1,1.184.355h0l0,0a2.117,2.117,0,0,1,.446.407l0,.01,0,.01a2.549,2.549,0,0,1,.427,1.385,2.206,2.206,0,0,1-.326,1.155l-.029.1a.188.188,0,0,0,.043.115.127.127,0,0,0,.105.043h.038l.034,0,2.948,0a.165.165,0,0,0,.158-.168l0-2.885a1.44,1.44,0,0,1-.206.014h0a1.515,1.515,0,0,1-.3-.043,2.283,2.283,0,0,1-.316.029,2.387,2.387,0,0,1-1.337-.441l-.053-.029a.95.95,0,0,1-.244-.254,2.706,2.706,0,0,1-.359-.767c-.024-.081-.038-.158-.058-.24a2.176,2.176,0,0,1,.681-2.051Z" transform="translate(521.135 5481.19)"/>
  </g>
</svg>
